<?xml version="1.0" encoding="utf-8"?>
<!-- Generator: Adobe Illustrator 19.2.1, SVG Export Plug-In . SVG Version: 6.00 Build 0)  -->
<svg version="1.1" id="layer" xmlns="http://www.w3.org/2000/svg" xmlns:xlink="http://www.w3.org/1999/xlink" x="0px" y="0px"
	 viewBox="0 0 652 652" style="enable-background:new 0 0 652 652;" xml:space="preserve">
<style type="text/css">
	.st0{fill:#75AADB;}
	.st1{fill:#4D4D4D;}
	.st2{fill:#FFFFFF;}
</style>
<g id="Blue_Gradient_Letters">
	<g>
		
			<ellipse transform="matrix(0.7071 -0.7071 0.7071 0.7071 -185.5536 193.8951)" class="st0" cx="141.3" cy="320.9" rx="105.2" ry="105.2"/>
		<g>
			<path class="st1" d="M268.9,352.1c5.5,3.5,13.3,6.1,21.7,6.1c12.5,0,19.7-6.6,19.7-16.1c0-8.7-5-13.9-17.8-18.6
				c-15.4-5.6-24.9-13.7-24.9-26.9c0-14.7,12.2-25.6,30.5-25.6c9.5,0,16.6,2.2,20.7,4.6l-3.4,10c-3-1.8-9.2-4.5-17.8-4.5
				c-12.9,0-17.8,7.7-17.8,14.1c0,8.8,5.7,13.1,18.8,18.2c16,6.1,23.9,13.9,23.9,27.7c0,14.5-10.6,27.3-32.9,27.3
				c-9.1,0-19-2.8-24.1-6.1L268.9,352.1z"/>
			<path class="st1" d="M353.5,283v16.2h17.6v9.4h-17.6v36.5c0,8.4,2.4,13.1,9.2,13.1c3.4,0,5.3-0.3,7.1-0.8l0.5,9.4
				c-2.4,0.8-6.1,1.7-10.9,1.7c-5.7,0-10.4-2-13.3-5.2c-3.4-3.8-4.8-9.8-4.8-17.8v-36.9h-10.5v-9.4h10.5v-12.6L353.5,283z"/>
			<path class="st1" d="M441.6,348.4c0,7.1,0.1,13.3,0.5,18.6h-10.9l-0.7-11h-0.3c-3.1,5.5-10.4,12.6-22.4,12.6
				c-10.6,0-23.4-6-23.4-29.7v-39.6h12.3v37.4c0,12.9,4,21.7,15.1,21.7c8.3,0,14-5.7,16.2-11.3c0.7-1.7,1.1-3.9,1.1-6.3v-41.4h12.3
				L441.6,348.4L441.6,348.4z"/>
			<path class="st1" d="M520.4,267.6v81.9c0,6,0.3,12.9,0.5,17.5H510l-0.5-11.8h-0.4c-3.6,7.5-11.8,13.3-22.8,13.3
				c-16.4,0-29.1-13.9-29.1-34.4c-0.1-22.5,14-36.2,30.4-36.2c10.5,0,17.4,4.9,20.4,10.2h0.3v-40.4H520.4z M508.2,326.8
				c0-1.5-0.1-3.6-0.5-5.2c-1.8-7.7-8.5-14.1-17.8-14.1c-12.7,0-20.3,11.2-20.3,26c0,13.7,6.9,25.1,20,25.1c8.3,0,15.8-5.6,18-14.7
				c0.4-1.7,0.5-3.4,0.5-5.3V326.8z"/>
			<path class="st1" d="M554.7,280.2c0,4.2-3,7.5-7.8,7.5c-4.5,0-7.4-3.4-7.4-7.5c0-4.2,3.1-7.7,7.7-7.7
				C551.6,272.5,554.7,275.9,554.7,280.2z M541,367v-67.7h12.3V367H541z"/>
			<path class="st1" d="M635,332.5c0,25-17.5,36-33.7,36c-18.2,0-32.5-13.5-32.5-34.9c0-22.5,15-35.8,33.6-35.8
				C621.9,297.9,635,312,635,332.5z M581.4,333.3c0,14.8,8.4,26,20.4,26c11.8,0,20.6-11,20.6-26.3c0-11.5-5.7-25.9-20.3-25.9
				C587.7,307.1,581.4,320.5,581.4,333.3z"/>
		</g>
		<g>
			<path class="st2" d="M177.3,354.5h11.4v8.9h-17.4l-28.9-43.3H127v34.4h15v8.9h-37.9v-8.9h13v-76.3l-13-1.6v-8.4
				c4.9,1.1,9.2,1.9,14.6,1.9c8.1,0,16.3-1.9,24.4-1.9c15.7,0,30.3,7.1,30.3,24.6c0,13.5-8.1,22-20.6,25.7L177.3,354.5z M127,311.5
				l8.3,0.2c20.1,0.3,27.9-7.4,27.9-17.8c0-12.1-8.7-16.8-19.8-16.8c-5.2,0-10.6,0.5-16.3,1.1V311.5z"/>
		</g>
		<g>
			<path class="st1" d="M628.1,272.5c-4.4,0-7.9,3.6-7.9,7.9s3.6,7.9,7.9,7.9c4.4,0,7.9-3.6,7.9-7.9
				C636,276.1,632.5,272.5,628.1,272.5z M634.7,280.5c0,3.7-3,6.6-6.6,6.6c-3.7,0-6.6-3-6.6-6.6c0-3.7,3-6.6,6.6-6.6
				C631.8,273.8,634.7,276.8,634.7,280.5z"/>
			<path class="st1" d="M630.9,283.7l-2-2.9c1.1-0.4,1.7-1.2,1.7-2.4c0-1.7-1.5-2.3-2.9-2.3c-0.4,0-0.7,0-1.1,0.1
				c-0.3,0-0.7,0.1-1.1,0.1c-0.5,0-0.8-0.1-1.3-0.2l-0.2,0v1.1l1.2,0.1v6.4h-1.2v1.2h3.7v-1.2h-1.3V281h1.1l2.5,3.7l0.1,0.1h1.8
				v-1.2L630.9,283.7L630.9,283.7z M629.4,278.5c0,0.4-0.2,0.7-0.5,1c-0.4,0.3-1,0.4-1.7,0.4h-0.6v-2.6c0.5,0,0.9-0.1,1.3-0.1
				C628.5,277.2,629.4,277.5,629.4,278.5z"/>
		</g>
	</g>
</g>
<g id="R_Ball">
</g>
</svg>
